<svg width="49" height="49" viewBox="0 0 49 49" fill="none" xmlns="http://www.w3.org/2000/svg">
<path fill-rule="evenodd" clip-rule="evenodd" d="M42.3913 14.5532L42.1113 14.0532C41.7501 13.4486 41.2407 12.9461 40.6313 12.5932L27.2113 4.85323C26.6037 4.50073 25.9139 4.31447 25.2113 4.31323H24.6313C23.9287 4.31447 23.2389 4.50073 22.6313 4.85323L9.21133 12.6132C8.60527 12.9638 8.10186 13.4672 7.75134 14.0732L7.47134 14.5732C7.11884 15.1809 6.93258 15.8707 6.93134 16.5732V32.0732C6.93258 32.7758 7.11884 33.4656 7.47134 34.0732L7.75134 34.5732C8.11092 35.1722 8.61231 35.6736 9.21133 36.0332L22.6513 43.7732C23.2559 44.133 23.9477 44.3198 24.6513 44.3132H25.2113C25.9139 44.312 26.6037 44.1258 27.2113 43.7732L40.6313 36.0132C41.2433 35.6706 41.7487 35.1652 42.0913 34.5532L42.3913 34.0532C42.7395 33.4438 42.9255 32.7552 42.9313 32.0532V16.5532C42.9301 15.8507 42.7439 15.1609 42.3913 14.5532ZM24.6313 8.31323H25.2113L36.9313 15.0732L24.9313 21.9932L12.9313 15.0732L24.6313 8.31323ZM26.9313 39.3132L38.6313 32.5532L38.9313 32.0532V18.5332L26.9313 25.4732V39.3132Z" fill="black"/>
</svg>
